<?xml version="1.0" encoding="UTF-8" standalone="no"?>
<svg width="30px" height="30px" viewBox="0 0 30 30" version="1.1" xmlns="http://www.w3.org/2000/svg" xmlns:xlink="http://www.w3.org/1999/xlink">
    <!-- Generator: Sketch 42 (36781) - http://www.bohemiancoding.com/sketch -->
    <title>Group</title>
    <desc>Created with Sketch.</desc>
    <defs></defs>
    <g id="Page-1" stroke="none" stroke-width="1" fill="none" fill-rule="evenodd" stroke-linecap="round">
        <g id="Group" transform="translate(1.000000, 1.000000)" stroke="#231F1F" stroke-width="1.5">
            <path d="M28.1283,14.3141 C28.1283,21.9431 21.9433,28.1281 14.3143,28.1281 C6.6843,28.1281 0.5003,21.9431 0.5003,14.3141 C0.5003,6.6851 6.6843,0.5001 14.3143,0.5001 C21.9433,0.5001 28.1283,6.6851 28.1283,14.3141 Z" id="Stroke-1"></path>
            <path d="M24.5913,13.2015 C25.1963,17.0515 21.8963,20.7685 17.2203,21.5035 C12.5443,22.2385 8.2633,19.7125 7.6573,15.8625" id="Stroke-3"></path>
            <path d="M17.398,10.7526 C17.221,9.6296 17.989,8.5756 19.112,8.3996 C20.235,8.2226 21.289,8.9906 21.465,10.1136" id="Stroke-5"></path>
            <path d="M10.6689,11.8101 C10.4919,10.6871 11.2599,9.6331 12.3829,9.4571 C13.5059,9.2801 14.5599,10.0481 14.7359,11.1711" id="Stroke-7"></path>
        </g>
    </g>
</svg>